<svg version="1.1" width="45px" height="16px" viewBox="0 0 45 16" xmlns="http://www.w3.org/2000/svg">
  <g>
    <path fill="#28a745" d="M16.773438 6.925781 L18.046875 6.925781 C18.441406 6.925781 18.753906 6.871094 18.988281 6.765625 C19.222656 6.660156 19.402344 6.511719 19.527344 6.3125 C19.648438 6.117188 19.734375 5.875 19.777344 5.585938 C19.820312 5.296875 19.84375 4.964844 19.84375 4.585938 C19.84375 4.203125 19.820312 3.871094 19.777344 3.582031 C19.734375 3.292969 19.640625 3.046875 19.503906 2.84375 C19.363281 2.640625 19.171875 2.488281 18.921875 2.390625 C18.675781 2.292969 18.347656 2.242188 17.9375 2.242188 L16.773438 2.242188 Z M14.539062 0.132812 L18.132812 0.132812 C20.765625 0.132812 22.078125 1.664062 22.078125 4.726562 C22.078125 5.636719 21.9375 6.417969 21.652344 7.070312 C21.367188 7.722656 20.867188 8.246094 20.148438 8.640625 L22.5625 15.789062 L20.195312 15.789062 L18.078125 8.988281 L16.773438 8.988281 L16.773438 15.789062 L14.539062 15.789062 Z M23.875 0.132812 L27.230469 0.132812 C27.84375 0.132812 28.382812 0.210938 28.851562 0.375 C29.316406 0.535156 29.742188 0.820312 30.121094 1.230469 C30.5 1.640625 30.765625 2.121094 30.910156 2.671875 C31.054688 3.222656 31.128906 3.964844 31.128906 4.902344 C31.128906 5.59375 31.074219 6.085938 30.992188 6.578125 C30.914062 7.070312 30.652344 7.921875 29.636719 8.503906 C28.996094 8.863281 28.082031 8.996094 27.25 8.996094 L26.109375 8.996094 L26.109375 15.789062 L23.875 15.789062 Z M26.109375 6.925781 L27.183594 6.925781 C27.636719 6.925781 27.988281 6.867188 28.238281 6.75 C28.484375 6.636719 28.667969 6.476562 28.785156 6.277344 C28.902344 6.078125 28.972656 5.835938 28.992188 5.550781 C29.015625 5.269531 29.027344 4.953125 29.027344 4.605469 C29.027344 4.28125 29.015625 3.976562 28.992188 3.683594 C28.972656 3.394531 28.90625 3.144531 28.796875 2.929688 C28.6875 2.71875 28.515625 2.550781 28.28125 2.425781 C28.046875 2.304688 27.710938 2.242188 27.273438 2.242188 L26.109375 2.242188 Z M39.894531 12.292969 C39.894531 12.777344 39.804688 13.238281 39.621094 13.679688 C39.4375 14.117188 39.1875 14.503906 38.867188 14.832031 C38.542969 15.164062 38.167969 15.425781 37.738281 15.625 C37.304688 15.820312 36.839844 15.921875 36.34375 15.921875 C35.921875 15.921875 35.492188 15.863281 35.050781 15.746094 C34.613281 15.628906 34.21875 15.425781 33.867188 15.140625 C33.519531 14.855469 33.230469 14.476562 33.003906 14.007812 C32.777344 13.539062 32.664062 12.945312 32.664062 12.226562 L32.664062 3.605469 C32.664062 3.09375 32.75 2.617188 32.925781 2.175781 C33.101562 1.738281 33.351562 1.355469 33.671875 1.035156 C33.992188 0.710938 34.375 0.457031 34.820312 0.273438 C35.269531 0.0898438 35.761719 0 36.300781 0 C36.8125 0 37.289062 0.0898438 37.726562 0.273438 C38.164062 0.457031 38.542969 0.714844 38.867188 1.042969 C39.1875 1.375 39.4375 1.769531 39.621094 2.230469 C39.804688 2.695312 39.894531 3.195312 39.894531 3.738281 L39.894531 4.617188 L37.660156 4.617188 L37.660156 3.871094 C37.660156 3.429688 37.535156 3.050781 37.289062 2.726562 C37.039062 2.40625 36.703125 2.242188 36.28125 2.242188 C35.722656 2.242188 35.355469 2.414062 35.171875 2.761719 C34.988281 3.105469 34.898438 3.539062 34.898438 4.066406 L34.898438 12.074219 C34.898438 12.527344 34.996094 12.910156 35.195312 13.214844 C35.390625 13.523438 35.746094 13.679688 36.257812 13.679688 C36.402344 13.679688 36.5625 13.652344 36.730469 13.601562 C36.898438 13.550781 37.050781 13.464844 37.1875 13.347656 C37.328125 13.230469 37.441406 13.070312 37.527344 12.863281 C37.617188 12.660156 37.660156 12.402344 37.660156 12.09375 L37.660156 11.324219 L39.894531 11.324219 Z M44.273438 7.941406 C44.273438 7.371094 43.8125 6.90625 43.246094 6.90625 L37.660156 6.90625 L37.660156 8.976562 L42.214844 8.976562 L42.214844 11.285156 L41.511719 11.285156 L43.257812 13.75 L45 11.285156 L44.273438 11.285156 Z M5.074219 8.996094 L5.074219 12.09375 C5.074219 12.738281 5.183594 13.300781 5.402344 13.777344 C5.621094 14.253906 5.910156 14.648438 6.265625 14.964844 C6.625 15.28125 7.027344 15.519531 7.472656 15.679688 C7.917969 15.839844 8.367188 15.921875 8.820312 15.921875 C9.273438 15.921875 9.722656 15.839844 10.167969 15.679688 C10.613281 15.519531 11.015625 15.28125 11.375 14.964844 C11.730469 14.648438 12.019531 14.253906 12.238281 13.777344 C12.457031 13.300781 12.566406 12.738281 12.566406 12.09375 L12.566406 6.929688 L8.5625 6.925781 L8.558594 8.996094 L10.332031 8.996094 L10.332031 12.09375 C10.332031 12.636719 10.183594 13.035156 9.882812 13.292969 C9.582031 13.550781 9.230469 13.679688 8.820312 13.679688 C8.410156 13.679688 8.058594 13.550781 7.757812 13.292969 C7.457031 13.035156 7.308594 12.636719 7.308594 12.09375 L7.308594 3.828125 C7.308594 3.285156 7.457031 2.882812 7.757812 2.628906 C8.058594 2.371094 8.410156 2.242188 8.820312 2.242188 C9.230469 2.242188 9.582031 2.371094 9.882812 2.628906 C10.183594 2.882812 10.332031 3.285156 10.332031 3.828125 L10.332031 4.617188 L12.566406 4.617188 L12.566406 3.828125 C12.566406 3.195312 12.457031 2.640625 12.238281 2.15625 C12.019531 1.671875 11.730469 1.273438 11.375 0.957031 C11.015625 0.640625 10.613281 0.402344 10.167969 0.242188 C9.722656 0.0820312 9.273438 0 8.820312 0 C8.367188 0 7.917969 0.0820312 7.472656 0.242188 C7.027344 0.402344 6.625 0.640625 6.265625 0.957031 C5.910156 1.273438 5.621094 1.671875 5.402344 2.15625 C5.183594 2.640625 5.074219 3.195312 5.074219 3.828125 L5.074219 6.925781 L2.785156 6.925781 L2.785156 4.617188 L3.488281 4.617188 L1.742188 2.148438 L0 4.617188 L0.726562 4.617188 L0.726562 7.960938 C0.726562 8.53125 1.1875 8.996094 1.753906 8.996094 Z M5.074219 8.996094" />
  </g>
</svg>
